<svg viewBox="15 6.5 70 70" xmlns="http://www.w3.org/2000/svg" preserveAspectRatio="xMidYMid meet">
  <!-- Hexágono exterior con gradiente -->
  <defs>
    <linearGradient id="hexGradient" x1="0%" y1="0%" x2="100%" y2="100%">
      <stop offset="0%" style="stop-color:#2563eb;stop-opacity:1" />
      <stop offset="100%" style="stop-color:#1e40af;stop-opacity:1" />
    </linearGradient>
    <linearGradient id="lineGradient" x1="0%" y1="0%" x2="100%" y2="0%">
      <stop offset="0%" style="stop-color:#60a5fa;stop-opacity:1" />
      <stop offset="100%" style="stop-color:#3b82f6;stop-opacity:1" />
    </linearGradient>
  </defs>

  <!-- Hexágono base -->
  <polygon points="50,8 78,25 78,58 50,75 22,58 22,25"
    fill="url(#hexGradient)"
    stroke="#1e3a8a"
    stroke-width="2" />

  <!-- Nodos principales -->
  <circle cx="50" cy="18" r="3" fill="#ef4444" stroke="#dc2626" stroke-width="1" />
  <circle cx="32" cy="35" r="3" fill="#fbbf24" stroke="#f59e0b" stroke-width="1" />
  <circle cx="68" cy="35" r="3" fill="#fbbf24" stroke="#f59e0b" stroke-width="1" />
  <circle cx="32" cy="49" r="3" fill="#fbbf24" stroke="#f59e0b" stroke-width="1" />
  <circle cx="68" cy="49" r="3" fill="#fbbf24" stroke="#f59e0b" stroke-width="1" />
  <circle cx="50" cy="66" r="3" fill="#ef4444" stroke="#dc2626" stroke-width="1" />

  <!-- Nodos de conexión intermedios -->
  <circle cx="41" cy="27" r="2.5" fill="#34d399" stroke="#10b981" stroke-width="1" />
  <circle cx="59" cy="27" r="2.5" fill="#34d399" stroke="#10b981" stroke-width="1" />
  <circle cx="41" cy="57" r="2.5" fill="#34d399" stroke="#10b981" stroke-width="1" />
  <circle cx="59" cy="57" r="2.5" fill="#34d399" stroke="#10b981" stroke-width="1" />
  <circle cx="50" cy="42" r="2.5" fill="#34d399" stroke="#10b981" stroke-width="1" />

  <!-- Líneas de conexión que conectan correctamente los nodos -->
  <!-- Del nodo superior a los nodos intermedios -->
  <line x1="50" y1="18" x2="41" y2="27" stroke="url(#lineGradient)" stroke-width="2" />
  <line x1="50" y1="18" x2="59" y2="27" stroke="url(#lineGradient)" stroke-width="2" />

  <!-- De los nodos intermedios superiores a los laterales -->
  <line x1="41" y1="27" x2="32" y2="35" stroke="url(#lineGradient)" stroke-width="2" />
  <line x1="59" y1="27" x2="68" y2="35" stroke="url(#lineGradient)" stroke-width="2" />

  <!-- Conexión horizontal central -->
  <line x1="32" y1="35" x2="50" y2="42" stroke="url(#lineGradient)" stroke-width="2" />
  <line x1="68" y1="35" x2="50" y2="42" stroke="url(#lineGradient)" stroke-width="2" />
  <line x1="32" y1="49" x2="50" y2="42" stroke="url(#lineGradient)" stroke-width="2" />
  <line x1="68" y1="49" x2="50" y2="42" stroke="url(#lineGradient)" stroke-width="2" />

  <!-- De los nodos laterales inferiores a los intermedios inferiores -->
  <line x1="32" y1="49" x2="41" y2="57" stroke="url(#lineGradient)" stroke-width="2" />
  <line x1="68" y1="49" x2="59" y2="57" stroke="url(#lineGradient)" stroke-width="2" />

  <!-- De los nodos intermedios inferiores al nodo inferior -->
  <line x1="41" y1="57" x2="50" y2="66" stroke="url(#lineGradient)" stroke-width="2" />
  <line x1="59" y1="57" x2="50" y2="66" stroke="url(#lineGradient)" stroke-width="2" />

  <!-- Nodos principales (por encima de las líneas) -->
  <circle cx="50" cy="18" r="3" fill="#ef4444" stroke="#dc2626" stroke-width="1" />
  <circle cx="32" cy="35" r="3" fill="#fbbf24" stroke="#f59e0b" stroke-width="1" />
  <circle cx="68" cy="35" r="3" fill="#fbbf24" stroke="#f59e0b" stroke-width="1" />
  <circle cx="32" cy="49" r="3" fill="#fbbf24" stroke="#f59e0b" stroke-width="1" />
  <circle cx="68" cy="49" r="3" fill="#fbbf24" stroke="#f59e0b" stroke-width="1" />
  <circle cx="50" cy="66" r="3" fill="#ef4444" stroke="#dc2626" stroke-width="1" />

  <!-- Nodos de conexión intermedios (por encima de las líneas) -->
  <circle cx="41" cy="27" r="2.5" fill="#34d399" stroke="#10b981" stroke-width="1" />
  <circle cx="59" cy="27" r="2.5" fill="#34d399" stroke="#10b981" stroke-width="1" />
  <circle cx="41" cy="57" r="2.5" fill="#34d399" stroke="#10b981" stroke-width="1" />
  <circle cx="59" cy="57" r="2.5" fill="#34d399" stroke="#10b981" stroke-width="1" />
  <circle cx="50" cy="42" r="2.5" fill="#34d399" stroke="#10b981" stroke-width="1" />
</svg>
